<svg xmlns="http://www.w3.org/2000/svg" viewBox="0 0 623.74 188.67"><path class="cls-1" d="M431.23,265.07c0,16-8.94,26.31-15.86,27.64-.78.31-1.68.12-2.4.42-.27-4.47-.51-7.64-.51-12.1,0-16.06-.39-21.52,2.4-27.17l0-.08c.32-.72.71-1.4,1.05-2,.63-1.14,1.37-2.86.76-3.51a4.92,4.92,0,0,0-1.2-.93c-1-.65-2.05,1-3.43,3.12-.25.37-.53.79-.84,1.23-6.26,9.22-10.95,29.33-10.95,41.15,0,5.26.1,10.64.2,15.84s.19,10.53.19,15.74c0,24.58-3.61,31.81-10.84,31.81-4.43,0-8.57-2-8.75-9.14a7,7,0,0,1,3.49-6.69,4.76,4.76,0,0,0,2.47-4.19c0-4.16-4.73-6.71-7.3-6.71-4.4,0-8,5.22-8,11.65,0,13.57,8.61,19.64,17.15,19.64,6.48,0,12.4-2.9,17.47-8.93a20.61,20.61,0,0,0,14,9.12c6.3.77,14.61-2.22,19.54-7.22,7.11-7.24,10.74-17.77,10.69-32.78-.06-20-11.42-27.9-22.67-29.54,7.47-3.27,16.46-11.68,16.46-27.3,0-13-4.3-20.9-15.13-26-7.28-3.44-14.66-4.06-21.33-3.74a31.15,31.15,0,0,0-19.09,7.69c-7,5.91-12.51,14.58-15.05,26.36v.1c-.09.51-.73,5,1.12,8.36a4.39,4.39,0,0,0,7.43.91c1.64-2.22,1.58-5.57,1.17-10.59-.53-6.36,3.15-13.8,5.84-18.39a22.33,22.33,0,0,1,16.52-10.7S431.23,233.51,431.23,265.07ZM413.76,313c0-4.21-.2-12.3-.45-16.46a11.54,11.54,0,0,1,3,0c10,1.2,19.23,5.94,20.83,24.89.57,6.79-.63,21.58-7.71,28.44-2.76,2.66-6.63,4.69-10.31,4.75h-.56c-5.69,0-8.39-3.44-10.38-5.84.19-.4.37-.8.55-1.21C412,339.82,413.76,328.25,413.76,313Z" transform="translate(-109.07 -203.31)"/><path class="cls-1" d="M422.48,361.76a18.5,18.5,0,0,1-2.14-.13,20.9,20.9,0,0,1-14-8.77c-5,5.7-10.87,8.6-17.43,8.6-8.84,0-17.75-6.29-17.75-20.33,0-6.8,3.84-12.33,8.56-12.33,2.68,0,7.9,2.61,7.9,7.39a5.44,5.44,0,0,1-2.81,4.79,6.35,6.35,0,0,0-3.15,6.07c.14,5.63,2.89,8.48,8.15,8.48,6.15,0,10.25-5.29,10.25-31.13,0-5.18-.1-10.51-.19-15.65v-.07c-.1-5.2-.2-10.59-.2-15.86,0-11.93,4.74-32.24,11.08-41.56l.73-1.09.31-.47c1.19-1.78,2.13-3.2,3.23-3.2a1.4,1.4,0,0,1,.73.21,5.82,5.82,0,0,1,1.33,1c.91,1,.15,2.92-.66,4.37l0,0a21.46,21.46,0,0,0-1,1.92l-.05.11c-2.38,4.82-2.37,9.72-2.33,21.57,0,1.62,0,3.37,0,5.26,0,3.82.16,6.66.38,10.26l.07,1,.58,0a3.83,3.83,0,0,0,1.09-.19l.09,0c6.2-1.2,15.38-10.59,15.38-27,0-23.93-15-26.51-21.47-26.51a19.54,19.54,0,0,0-3.2.22,21.83,21.83,0,0,0-16.1,10.41c-4.21,7.22-6.15,13.25-5.76,18s.55,8.58-1.3,11.08a5.08,5.08,0,0,1-4,1.91h0a5,5,0,0,1-4.41-2.89c-2.07-3.81-1.24-8.65-1.21-8.85l0-.12c2.42-11.28,7.55-20.27,15.27-26.75a31.88,31.88,0,0,1,19.41-7.82c1-.06,2.05-.08,3-.08a42.61,42.61,0,0,1,18.56,3.85c10.87,5.14,15.51,13.1,15.51,26.64,0,16.65-9.83,24.2-14.95,27,7.65,1.67,21.09,7.76,21.16,29.84,0,14.9-3.53,25.79-10.9,33.28A26.67,26.67,0,0,1,422.48,361.76Zm-16-11,.43.62a20,20,0,0,0,13.58,8.86,16.33,16.33,0,0,0,2,.12,25.5,25.5,0,0,0,17.08-7.17C446.66,346,450.09,335.45,450,321c-.06-23.13-15.5-27.9-22.14-28.87l-2.34-.35,2.2-.95c3.78-1.66,16.08-8.45,16.08-26.67,0-12.9-4.42-20.49-14.78-25.38A41.55,41.55,0,0,0,411,235c-1,0-1.95,0-3,.08a30.85,30.85,0,0,0-18.75,7.56c-7.48,6.29-12.47,15-14.82,26v.09s-.78,4.5,1,7.86a3.79,3.79,0,0,0,3.41,2.24h0a4,4,0,0,0,3.07-1.42c1.41-1.91,1.46-4.89,1-10.08-.41-5,1.58-11.37,5.95-18.84a23,23,0,0,1,16.93-11,20.1,20.1,0,0,1,3.36-.24c6.81,0,22.65,2.72,22.65,27.87,0,17.12-9.72,27-16.31,28.31a4.54,4.54,0,0,1-1.36.22,3.66,3.66,0,0,0-1,.17l-.73.3-.17-2.69c-.22-3.63-.39-6.48-.39-10.35,0-1.89,0-3.64,0-5.26,0-12.1-.06-17.11,2.49-22.24l0-.08c.33-.7.7-1.4,1-2l0,0c.94-1.71.95-2.55.86-2.66a4.5,4.5,0,0,0-1.1-.83.29.29,0,0,0-.16-.06c-.51,0-1.45,1.43-2.29,2.67l-.3.47-.75,1.1c-6.2,9.11-10.82,29-10.82,40.73,0,5.26.09,10.63.19,15.82v.09c.1,5.14.19,10.48.19,15.67,0,23.37-3.2,32.48-11.43,32.48-5.86,0-9.18-3.47-9.33-9.78a7.73,7.73,0,0,1,3.79-7.32,4.13,4.13,0,0,0,2.17-3.59c0-3.68-4.42-6-6.72-6-4.07,0-7.37,4.93-7.37,11,0,13.1,8.31,19,16.56,19,6.43,0,12.17-2.94,17-8.74Zm12.1,4.46c-5.8,0-8.61-3.39-10.66-5.87l-.44-.54.2-.43c.19-.39.36-.78.54-1.19,3.3-7.72,5-19.24,5-34.25,0-4.05-.19-12.11-.44-16.42l-.07-1.22.83.51h.07a6.24,6.24,0,0,1,1.32-.12,11.78,11.78,0,0,1,1.5.1c9,1.08,19.63,4.94,21.36,25.49.65,7.63-.94,22.25-7.92,29a16.55,16.55,0,0,1-10.68,4.92Zm-9.65-6.63c1.89,2.28,4.49,5.27,9.65,5.27h.55a15.3,15.3,0,0,0,9.94-4.6c6.63-6.43,8.12-20.49,7.51-27.84-1.66-19.58-11.73-23.26-20.31-24.28a11.92,11.92,0,0,0-1.38-.09c-.41,0-.71,0-.94.05.24,4.46.42,12,.42,15.85,0,15.22-1.71,26.94-5.08,34.84Z" transform="translate(-109.07 -203.31)"/><path class="cls-1" d="M517.93,254c-4.23-11.83-10.67-18.61-18.59-19.63a22.51,22.51,0,0,0-2.93-.19c-14.15,0-20.91,13.37-21.54,14.71-7.71,14.21-12.69,37-12.69,58,0,26.78,9.38,53.9,27.27,53.9,11.29,0,20.42-9.18,26.43-26.52,4.55-13.12,7.15-30.52,7.15-47.73C523,274.92,521.18,263.08,517.93,254Zm-39.12,77.35c-3.69-10.78-5.9-27.46-5.9-40.62,0-12.73,1.92-29.62,6-39.09s10.94-10.54,14.83-10.34l1,0,.13,0H495c6.69.53,11.49,10.76,14.41,20A121.55,121.55,0,0,1,515,298c0,12.66-1.58,27.45-4.33,36.43-3.51,11.44-8.7,17.25-15.43,17.25C486.72,351.64,481.83,340.2,478.81,331.37Z" transform="translate(-109.07 -203.31)"/><path class="cls-1" d="M489.45,361.46c-18.28,0-27.86-27.45-27.86-54.57,0-21.12,5-44,12.78-58.33.71-1.51,7.58-15,22-15a23.1,23.1,0,0,1,3,.2c8.16,1.05,14.75,8,19.08,20,3.26,9.14,5.15,21.08,5.15,32.78,0,17.31-2.63,34.79-7.2,48C510.33,352.14,501,361.46,489.45,361.46Zm7-126.58c-13.77,0-20.32,12.89-21,14.36-7.67,14.14-12.6,36.76-12.6,57.65,0,26.44,9.16,53.21,26.67,53.21,11,0,20-9,25.88-26.08,4.52-13,7.11-30.34,7.11-47.48,0-11.53-1.84-23.29-5.06-32.26-4.15-11.58-10.41-18.23-18.1-19.22A23.28,23.28,0,0,0,496.41,234.88Zm-1.13,117.43c-8.91,0-14-11.8-17-20.7-3.54-10.36-5.93-26.79-5.93-40.86,0-12.59,1.87-29.67,6.06-39.4,3.81-8.87,10-10.73,14.5-10.73.31,0,.6,0,.88,0l1,.05.24,0c7.23.57,12.13,11.46,15,20.48A123,123,0,0,1,515.63,298c0,13.41-1.75,28.14-4.36,36.64C507.67,346.35,502.28,352.31,495.28,352.31ZM492.88,242c-4.17,0-9.89,1.73-13.45,10-4.09,9.53-5.92,26.35-5.92,38.79,0,13.92,2.35,30.14,5.84,40.37,2.92,8.51,7.75,19.84,15.93,19.84,6.44,0,11.44-5.66,14.87-16.8,2.57-8.38,4.29-22.93,4.29-36.2a120.85,120.85,0,0,0-5.56-36.31c-2.73-8.66-7.34-19.07-13.9-19.59h-.25l-1-.06Z" transform="translate(-109.07 -203.31)"/><path class="cls-1" d="M610.44,326.89a6.82,6.82,0,0,0-.9,2q-.24.69-.6,1.86c-1.09,3.38-3.57,11.11-6.12,16-3.77,7.12-7.64,8.64-10.42,8.64-5.76,0-7.69-12.21-9.35-20.46A163.21,163.21,0,0,1,580.52,301a195.09,195.09,0,0,1,4.73-35.75c3.06-12.94,5.85-21.83,9.47-23.58,5.85-2.81,6.87,6.43,6.4,11.65-.1,1.07-.28,2.39-.53,3.67-.05.24-.09.48-.14.71a4.08,4.08,0,0,1-.1.45,4.7,4.7,0,0,0,.22,3.55,3,3,0,0,0,2.53,1.39h.24c2.63,0,5.5-2.67,5.7-10.16.26-10.19-6.14-16.12-12.59-15.74-9.94.59-15.72,16.85-19.17,31-.8-6.95-1.57-13.84-3.47-18.89-3.66-9.7-10.46-14.37-17.17-14.72l-1.37,0c-9.75,0-17.9,7.12-21.33,23.21l0,.08c-.12.67-.63,4.09.88,6.33a3.82,3.82,0,0,0,3.26,1.72l.47,0c2-.13,3.91-1.1,4.71-10.08,1-11.81,5.39-17.51,9.56-17.51H553c11.25,0,14.82,22.28,14,54-.24,9.44-1.26,27.37-5.32,41.78-3.76,13.37-8.88,22.34-15.81,21.58-1.85-.19-5.36-2.34-4.29-9,1-6.39,4-9.8,5.79-11.39.92-.81,1.64-1.44,1.67-2.69.08-3-3.39-4.83-6.79-4.83s-7,4-7.27,12.82c-.38,14.64,5.5,19.86,11.12,19.86,6.71,0,12.11-4.64,16.85-13.8,2.36-4.55,5.29-13.09,6.38-23.2,3.08,21.21,10.72,37,21.46,37,7,0,12.53-2.46,18.24-16.52a79.78,79.78,0,0,0,4.48-15.3C613.7,327,611.17,325.82,610.44,326.89Z" transform="translate(-109.07 -203.31)"/><path class="cls-1" d="M590.76,361.11c-9.79,0-17.68-12.48-21.41-33.61A68.36,68.36,0,0,1,563.43,347c-4.93,9.52-10.61,14.15-17.36,14.15a9.55,9.55,0,0,1-7.43-3.59c-3-3.52-4.48-9.4-4.28-17,.24-9.32,4.12-13.49,7.86-13.49a8.45,8.45,0,0,1,6.3,2.49,4.51,4.51,0,0,1,1.09,3c0,1.57-.94,2.36-1.91,3.2-2,1.76-4.62,5.09-5.57,11-.43,2.63-.14,4.72.85,6.22a4.23,4.23,0,0,0,2.92,1.94c6,.64,11.06-6.47,15.19-21.12,4-14.32,5-32.2,5.29-41.58.69-26.78-1.79-43.7-7.37-50.26a7.67,7.67,0,0,0-6-3h-.17c-3.73,0-7.94,5.22-9,16.9-.76,8.66-2.58,10.5-5.25,10.69a5.08,5.08,0,0,1-.51,0,4.36,4.36,0,0,1-3.73-2c-1.68-2.46-1.12-6.16-1-6.87l0-.1c3.25-15.31,11-23.74,21.9-23.74.46,0,.91,0,1.39,0,7.66.39,14.27,6,17.69,15.12,1.65,4.37,2.45,9.91,3.15,15.88,4.93-18.62,11.13-27.91,18.92-28.37a11.52,11.52,0,0,1,9.4,4.25A17.89,17.89,0,0,1,609.63,253c-.2,8-3.38,10.83-6.29,10.83h-.27a3.49,3.49,0,0,1-3-1.69,5.4,5.4,0,0,1-.3-4.11v-.06c0-.12.06-.24.08-.36l.13-.71a35.26,35.26,0,0,0,.53-3.6c.32-3.51-.1-8.24-1.74-10.33-1-1.21-2.21-1.39-3.84-.61-3.63,1.76-6.53,12.15-9.12,23.12a194.53,194.53,0,0,0-4.72,35.6,162.36,162.36,0,0,0,2.52,33.78c.13.63.25,1.27.38,1.93,1.5,7.59,3.55,18,8.39,18,3.64,0,7-2.81,9.9-8.31,2.58-5,5.12-12.94,6.08-15.94.26-.79.45-1.43.61-1.88l.09-.27a6.18,6.18,0,0,1,.9-1.86,1.55,1.55,0,0,1,1.35-.68,3,3,0,0,1,2.28,1.21,2.32,2.32,0,0,1,.44,1.7,79.62,79.62,0,0,1-4.51,15.47C603.82,358.27,598.11,361.11,590.76,361.11Zm-21.55-42.45.67,4.64c3.27,22.49,11.27,36.45,20.88,36.45,7.06,0,12.23-2.64,17.71-16.13a76.4,76.4,0,0,0,4.41-15.14.79.79,0,0,0-.18-.6,1.89,1.89,0,0,0-1.37-.72c-.21,0-.35,0-.41.15a5.14,5.14,0,0,0-.73,1.51l-.1.28c-.15.45-.35,1.08-.59,1.86-1,3-3.54,11.08-6.17,16.16-3.16,6-6.84,9-10.93,9-5.8,0-7.87-10.57-9.55-19.06-.12-.66-.25-1.31-.38-1.92A163.7,163.7,0,0,1,579.93,301a196.17,196.17,0,0,1,4.75-35.91c3.09-13.06,5.93-22.14,9.81-24,2.1-1,3.88-.68,5.18.95,2.17,2.75,2.3,8.45,2,11.38a37.22,37.22,0,0,1-.54,3.75l-.14.7a2.84,2.84,0,0,1-.09.42l0,.07a4,4,0,0,0,.14,3,2.41,2.41,0,0,0,2.07,1.11h.21c2.35,0,4.92-2.5,5.1-9.51.15-5.68-1.81-9.23-3.48-11.19a10.42,10.42,0,0,0-8.47-3.85c-7.55.46-13.81,10.72-18.64,30.49l-.78,3.19-.44-3.78c-.78-6.88-1.54-13.37-3.36-18.21-3.25-8.59-9.47-13.94-16.65-14.31-.47,0-.91,0-1.35,0-10.25,0-17.64,8.06-20.75,22.7l0,.08c-.1.59-.59,3.75.76,5.75a3.27,3.27,0,0,0,2.8,1.47l.4,0c1.36-.1,3.36-.23,4.18-9.48,1.11-12.51,5.91-18.12,10.16-18.12H553a8.83,8.83,0,0,1,6.89,3.44c5.82,6.83,8.41,24.08,7.7,51.24-.24,9.46-1.26,27.48-5.34,42-4.32,15.34-9.87,22.77-16.44,22a5.38,5.38,0,0,1-3.74-2.46c-.83-1.25-1.69-3.53-1.07-7.29,1-6.32,3.83-9.91,6-11.81,1-.83,1.42-1.27,1.44-2.16a3,3,0,0,0-.75-2.05,7.36,7.36,0,0,0-5.45-2.08c-3.17,0-6.46,3.76-6.68,12.16-.18,7.2,1.18,12.74,4,16a8.48,8.48,0,0,0,6.58,3.17c6.39,0,11.57-4.28,16.34-13.48,2.33-4.5,5.22-12.88,6.3-22.95Z" transform="translate(-109.07 -203.31)"/><path class="cls-1" d="M730,326.91c-.78-.18-1.23,1.07-1.51,1.78s-2.07,10.44-5.18,16.48c-4.45,8.6-8.09,11.2-11.26,9.68s-4.28-10.39-5.6-19c-1.73-11.41-4.13-32.79-14.37-37.07,3.88-1.21,8-3.08,10.78-5.89,6.2-6.26,10.65-14.05,10.93-27.53.32-15.7-5.82-21.84-13.84-26.51-7.26-4.22-17-5-22-4.5-8.86.84-15.41,3.42-22,9.5-6,5.58-10.21,13.8-12.61,21.95-.4,2.34-1.53,7,.24,10.76,2.07,4.39,6.66,2.86,7.91,1.34,1.82-2.21,1.39-6,1.25-12-.16-6.58,4-14.35,5.71-17.13a23.62,23.62,0,0,1,19.22-11h.23c14.88,0,22.79,10.93,22.37,28.49-.5,21.21-7.86,28.64-17.81,31.09l-.37.11c0-.72-.08-1.43-.13-2.13-.31-5.2-.4-9.11-.64-14.34-.64-13.73-.65-21.19,2.14-26.83l0-.09c.32-.72.71-1.41,1-2,.64-1.14,1.76-2.56,1.55-3.12-.3-.8-.88-1.14-1.73-1.65-1.19-.73-2,1-3.43,3.12-.25.37-.52.79-.83,1.23-6.27,9.22-11,29.33-11,41.15,0,5.26.09,10.64.19,15.84s.22,10.53.2,15.74c-.12,26.48-4.7,31.75-10.85,31.75-3.82,0-8.81-1.74-8.63-10.11,0-2.51,1.66-4.19,3.36-5.66,1.17-1,2.49-2.14,2.49-4.19,0-4.16-4.73-6.71-7.31-6.71-4.39,0-8,5.22-8,11.65,0,13.57,8.62,19.64,17.16,19.64,9.27,0,16-4.75,20-14.11,3.29-7.7,4.83-18.41,4.83-33.68,0-3-.11-8.88-.25-11.9l.09.08c6.57.6,9,18,10.14,28.5.77,7.29,2.13,14.84,4.16,20.56,2.48,7,6.12,9.75,11.79,10.55,7.26,1,13.91-5,17.78-13a74,74,0,0,0,5.87-18.55C732.35,327.74,731.32,327.23,730,326.91Z" transform="translate(-109.07 -203.31)"/><path class="cls-1" d="M710.17,361.57h0a13.72,13.72,0,0,1-1.69-.12c-6.27-.9-9.81-4.07-12.26-11-2.37-6.65-3.59-15-4.21-20.74-1.84-17.29-4.87-26.64-9-27.79.11,3.12.21,8.14.21,11,0,15.38-1.55,26.18-4.89,34-4.1,9.62-11,14.5-20.52,14.5-8.83,0-17.75-6.29-17.75-20.33,0-6.8,3.84-12.33,8.56-12.33,2.68,0,7.91,2.61,7.91,7.39,0,2.38-1.51,3.68-2.73,4.73-1.85,1.6-3.09,3.08-3.13,5.14-.07,3.06.58,5.4,1.94,7a7.82,7.82,0,0,0,6.1,2.44c5.26,0,10.14-3.76,10.25-31.09,0-4.52-.06-9.18-.15-13.68l0-2c-.1-5.2-.2-10.57-.2-15.86,0-11.93,4.74-32.24,11.08-41.56l.77-1.14.05-.1c.21-.3.4-.58.58-.87,1-1.5,1.72-2.68,2.79-2.68a1.55,1.55,0,0,1,.81.24l.08,0a3.75,3.75,0,0,1,1.93,2c.28.75-.28,1.63-1,2.75-.21.33-.43.67-.61,1-.34.6-.72,1.28-1,2l0,.1c-2.8,5.67-2.65,13.78-2.06,26.47.09,1.94.16,3.7.22,5.4.11,2.91.22,5.66.42,8.92l.08,1.34c11.36-2.95,16.61-12.35,17-30.37.22-9-1.82-16.33-5.91-21.13-3.77-4.42-9.11-6.67-15.86-6.67h-.23a22.92,22.92,0,0,0-18.74,10.73c-.59.94-5.76,9.43-5.6,16.72,0,.85,0,1.66.07,2.43.15,4.78.25,7.92-1.48,10a5.69,5.69,0,0,1-4.15,1.75,5.1,5.1,0,0,1-4.7-3.23c-1.71-3.62-.92-7.88-.45-10.43,0-.29.1-.56.15-.79v-.09c2.72-9.24,7.26-17.15,12.8-22.26,6.44-6,12.9-8.75,22.31-9.64a26.16,26.16,0,0,1,2.91-.14c2.65,0,11.87.35,19.38,4.71,8.73,5.08,14.47,11.63,14.16,27.13-.31,15.2-6.11,22.95-11.12,28a24.83,24.83,0,0,1-9.46,5.52c8.6,5.3,11.15,22.58,12.85,34.21.14.92.26,1.79.39,2.62l.22,1.42c1.16,7.75,2.38,15.76,5,17a3.67,3.67,0,0,0,1.52.36c2.62,0,5.66-3.28,9-9.76,2.39-4.62,4-11.69,4.72-14.71a11.24,11.24,0,0,1,.46-1.75l0-.11c.31-.75.83-2,1.85-2l.27,0c.8.19,3,.67,2.72,3a74.41,74.41,0,0,1-5.95,18.8C722.78,356.52,716.56,361.57,710.17,361.57ZM682.69,300.5c6.73.91,9.22,17,10.49,29.08.61,5.71,1.82,13.88,4.13,20.39s5.54,9.31,11.31,10.13a10.1,10.1,0,0,0,1.55.11c5.86,0,11.85-4.91,15.65-12.82a72.5,72.5,0,0,0,5.8-18.3c0-.57,0-1.12-1.77-1.51h0c-.3,0-.67.9-.81,1.25L729,329c-.05.15-.2.8-.37,1.49-.7,3.08-2.36,10.27-4.84,15.06-3.62,7-6.9,10.42-10,10.42a4.49,4.49,0,0,1-2-.47c-3.24-1.55-4.45-9.56-5.73-18.05l-.22-1.42c-.13-.82-.25-1.7-.39-2.62-1.65-11.26-4.42-30.1-13.6-33.94l-1.75-.74,1.8-.55c4.59-1.43,8.23-3.41,10.55-5.75,7.26-7.33,10.48-15.42,10.72-27,.29-14.8-5.2-21-13.52-25.89-7.27-4.23-16.26-4.56-18.84-4.56-1,0-2,0-2.81.11-9.15.89-15.42,3.59-21.67,9.37-5.35,4.93-9.75,12.6-12.4,21.59,0,.23-.09.49-.14.77-.44,2.36-1.17,6.33.33,9.5a3.9,3.9,0,0,0,3.66,2.52,4.55,4.55,0,0,0,3.28-1.32c1.4-1.7,1.31-4.62,1.16-9.07,0-.77-.05-1.58-.07-2.44-.17-7.71,5.21-16.56,5.83-17.53a24.1,24.1,0,0,1,19.7-11.3h.23c7.09,0,12.71,2.39,16.72,7.08,4.3,5.07,6.47,12.71,6.25,22.11-.25,10.18-2,17.69-5.49,23a20.32,20.32,0,0,1-12.8,8.77l-1,.32-.17-3c-.2-3.28-.31-6-.42-9-.06-1.7-.14-3.45-.22-5.39-.66-14.13-.66-21.42,2.2-27.2l0-.08c.32-.72.71-1.42,1-2,.21-.37.44-.74.66-1.1a7.9,7.9,0,0,0,.84-1.48c-.21-.49-.58-.74-1.37-1.21l-.08,0a.39.39,0,0,0-.25-.09c-.46,0-1.14,1-1.83,2.13l-.58.89-.07.1-.77,1.14c-6.2,9.11-10.83,29-10.83,40.73,0,5.27.1,10.64.19,15.82l0,2c.09,4.52.17,9.18.16,13.72-.09,23-3.41,32.43-11.44,32.43a9,9,0,0,1-7-2.84c-1.58-1.85-2.34-4.54-2.27-8,.06-2.76,1.77-4.6,3.6-6.2,1.11-.94,2.26-1.93,2.26-3.64,0-3.68-4.42-6-6.72-6-4.07,0-7.37,4.93-7.37,11,0,13.1,8.31,19,16.56,19,9,0,15.57-4.62,19.46-13.72,3.25-7.62,4.76-18.23,4.76-33.4,0-3.17-.1-8.92-.24-11.86l-.08-1.53Z" transform="translate(-109.07 -203.31)"/><path class="cls-1" d="M236.07,266.59a2.08,2.08,0,0,1,.67.26c.25.13.37.22.57.31l.2.08c.19.08.38.08.44,0a.32.32,0,0,0,0-.39l0,0a5.68,5.68,0,0,0-.87-.81,4.2,4.2,0,0,0-3.69-.61c-.27.08-.41.1-.54.34a.55.55,0,0,0,0,.38.49.49,0,0,0,.29.33l.08,0h0a1.12,1.12,0,0,1,.53,1,.55.55,0,0,1,0,.31.69.69,0,0,0-.17.4.57.57,0,0,0,.41.56l.08.11a1.49,1.49,0,0,0,1.34.6,1.77,1.77,0,0,0,.86-.14.86.86,0,0,1,.26-.1,1.89,1.89,0,0,1,.45.15,1.88,1.88,0,0,0,.35.09,2.83,2.83,0,0,0,.35,0c.19,0,.38-.1.32-.37a2.55,2.55,0,0,0-.44-.83,4.17,4.17,0,0,0-.37-.36,3.33,3.33,0,0,0-.87-.51l-.13-.06c-.07,0-.49-.23-.35-.56C235.83,266.72,235.91,266.57,236.07,266.59Z" transform="translate(-109.07 -203.31)"/><path class="cls-1" d="M182.45,308.7a1.22,1.22,0,0,0-1,2,1.3,1.3,0,0,0,.87.39h0a1.24,1.24,0,0,0,1.25-1.17,1.17,1.17,0,0,0-.33-.87A1.21,1.21,0,0,0,182.45,308.7Z" transform="translate(-109.07 -203.31)"/><path class="cls-1" d="M189.32,262.11a2,2,0,0,0-1-.53l-.28-.08c1-.33,1.9-.73,1.82-3.15a47,47,0,0,1,.4-5.74,3.2,3.2,0,0,0,0-.36v0c0-1.06,0-2.2-.64-2.62a2.15,2.15,0,0,0-2.19.31h0c-2.63,1.42-4.95,4.89-5.88,7.55a35.94,35.94,0,0,1,.17-5.88l0-.2a.8.8,0,0,0-.69-.85h-.14a.76.76,0,0,0-.68.69,29.22,29.22,0,0,0,.35,5.68h0a.63.63,0,0,0-.35-.1l-.13,0a.91.91,0,0,0-.5.41l-.28-.57a19.62,19.62,0,0,0-2.72-4.44.79.79,0,0,0-.62-.25.69.69,0,0,0-.45.2.9.9,0,0,0,.07,1.18l.08.08a20.91,20.91,0,0,1,3.33,4.78c-2.22-1.63-5.8-3.4-9-3.26h-.14l-.29,0c-.92.06-1.49.36-1.72.89-.31.71,0,1.66,1,2.88l0,0,0,.05c.06.09.23.27.45.53a21.24,21.24,0,0,1,3,4c.5,1,1.11,2,2.66,1.87a5,5,0,0,0,.92-.18l-.14.18a3.59,3.59,0,0,0-.89,1.73,3.89,3.89,0,0,0,.65,2.83,7.39,7.39,0,0,0,2.29,2.33h0a4,4,0,0,0,2.14.88,1.1,1.1,0,0,0,.51-.17c1.11-.72,1.11-2.07,1.11-3.06v-.18c0-.37,0-.66,0-.92a9.45,9.45,0,0,0,0-1.07,22.26,22.26,0,0,1,.22-3.8l.21-.06a15.54,15.54,0,0,1,2.16,3l.3.48a6.77,6.77,0,0,0,.59.83l.36.46.31.44a2.9,2.9,0,0,0,2.3,1.61c1.2.05,1.87-1.85,1.87-1.87a10.41,10.41,0,0,0,.64-3.62A4.57,4.57,0,0,0,189.32,262.11Zm-8.64,2.25c0,.63-.15,1.46-.28,2.42l-.06.42c0,.28-.09.73-.15,1.21s-.13,1-.19,1.45c-.08.63-.21.75-.36.83a.66.66,0,0,1-.26.07,1.15,1.15,0,0,1-.76-.26,4.61,4.61,0,0,1-1.8-1.74,5.89,5.89,0,0,1-.58-2c0-1.23.43-1.46.94-1.76l.36-.24c.31-.21.79-.65.54-1.1a.3.3,0,0,0-.31-.2,1.11,1.11,0,0,0-.38.14,1.24,1.24,0,0,1-.33.15A4.57,4.57,0,0,1,176,264c-1,.07-1.61-.42-2.35-1.82a19.89,19.89,0,0,0-2.36-3.22c-.39-.46-.73-.86-1-1.19a1.62,1.62,0,0,1-.38-.81.49.49,0,0,1,.42-.26h.07c.2,0,.4-.06.6-.07,4.94-.37,8.23,3.51,8.27,3.55l.1.1A5.51,5.51,0,0,1,180.68,264.36Zm7.59,3.58,0,.06a.94.94,0,0,1-.49.32c-.23.05-.58-.19-.73-.34a20.66,20.66,0,0,1-1.48-1.53c-.6-.73-1.06-1.36-1.6-2.08-.22-.3-.45-.62-.71-1l-.05-.08a7,7,0,0,1-.9-4,1.22,1.22,0,0,0,0-.17,9.86,9.86,0,0,1,5.61-7.6.31.31,0,0,1,.15,0,.47.47,0,0,1,.31.06c.06,0,.16.25.14.72s-.1,1.11-.18,1.77a24.92,24.92,0,0,0-.27,4c.09,1.57-.17,2.45-1.85,2.91l-.28.06c-.32.06-.65.12-.59.53s.41.37.7.35h.39a1.76,1.76,0,0,1,1.8,1,7.35,7.35,0,0,1,.74,2.47v0h0A3.8,3.8,0,0,1,188.27,267.94Z" transform="translate(-109.07 -203.31)"/><path class="cls-1" d="M309.3,295a1.13,1.13,0,0,0-.1-.13c-1.87-2-4.54-.76-5.68.18a10.23,10.23,0,0,0-3.32,5.52,17.49,17.49,0,0,0-.14,3.12,30,30,0,0,0-1.85-2.91,11.75,11.75,0,0,0-9.44-5.13,8.18,8.18,0,0,0-5.76,1.91,8.4,8.4,0,0,0-2.75,6.19h-.1a6.1,6.1,0,0,0-4.53,2.34c-3.4,3.83-3,10.92-2.82,13a27.38,27.38,0,0,1-1.41,10.41c-.14.36-.36,1,0,1.2s.95-.16,1.19-.3a14.81,14.81,0,0,0,3.06-2.29c.05,0,.12,0,.17.06.84.75,2.9,1.85,6,.1a12.76,12.76,0,0,0,4,2.78c.39.16,1,.42,1.31.1s-.08-.95-.31-1.29c-2.56-3.67-1.85-7.38-1-11.67a45.47,45.47,0,0,0,.84-5.8c.28-4.95-2.8-7.68-4.71-8.35l-.07,0a7.85,7.85,0,0,1,2.41-5.69,6.43,6.43,0,0,1,4.44-1.46h.07c6.88.09,10.78,9.9,10.81,10s5.35,11.17,3.11,22.8c-.39-2.76-4-6.65-9-10-.28-.18-.93-.66-1.22-.5s-.18.94-.17,1.27c0,0,.32,2,.74,5,.4,2.85.25,5.21,2,7.57a6.38,6.38,0,0,0,2.28,1.74c.45.19,2.58.65,3.33.28-1.25,3-7.16,7.42-14,7.34a26.18,26.18,0,0,1-2.64-.2c-6.8-1-12.71-5.78-14-7.93l-.13-.21a84.31,84.31,0,0,0-5.9-10.59c-.1-.25-.45-.88-.5-1-2.2-4.55-2.32-12.06,1.68-18.31a76.15,76.15,0,0,1,6-8.12c9.93-11.61,11.72-25,12.34-29.43a20.62,20.62,0,0,0,.33,2.84c.69,3.31,2.27,6.54,5.78,10.28a3.05,3.05,0,0,0-1.35-.16,2.65,2.65,0,0,0-2,1.21,4.17,4.17,0,0,0-.46,3.24c.36,1.88,1.26,3.45,3.47,3.22a5.84,5.84,0,0,0,3-1.43,5.07,5.07,0,0,0-.88,3.31,3,3,0,0,0,3,2.55,6.31,6.31,0,0,0,1.53-.1A4.34,4.34,0,0,0,299,290a2.89,2.89,0,0,0,.43-2.28,4.13,4.13,0,0,0-2.11-2.81,7,7,0,0,0,1.73.55,3.3,3.3,0,0,0,1.12.05,3,3,0,0,0,2-1.2,4.2,4.2,0,0,0,.46-3.25c-.46-2.42-2-3.88-4-3.3-1.11.33-1.93,1.56-2.47,2.1a6.39,6.39,0,0,0,1-3.37c-.34-2-2.05-2.65-4.53-2.21a3.87,3.87,0,0,0-2.52,1.33c-.88,1-.25,2.13-.08,2.69-3.78-3.87-4.36-8-4.8-10.58a43.87,43.87,0,0,1-.7-5,7.41,7.41,0,0,0,4.17,4.71,10.4,10.4,0,0,0,3.7.65,17.61,17.61,0,0,0,7-1.76c.32-.16.88-.46.85-.8s-.65-.68-1-.79c-2.8-.91-4.13-2.5-6-4.72-.6-.71-1.21-1.45-1.93-2.24a5.91,5.91,0,0,0-4.21-2.18,3.43,3.43,0,0,0-2.51,1.09c.21-7.18-.52-15.63-3.14-21.54-2.33-5.27-5.91-8.78-10.07-12.22A33.38,33.38,0,0,0,253,215.8c-8.76-.59-14.48,3-21.59,8.49-3.72,2.89-6.38,5.1-12.6,5.93.23-3.13,0-5.77-1.73-7.7a9.09,9.09,0,0,0-6.62-3.35s0,0,0,0c-3.71-.3-7,2.38-8.36,5a.36.36,0,0,1,0,.09,11.65,11.65,0,0,1-1.53-2.56,12.86,12.86,0,0,1,0-10.88v0a11.83,11.83,0,0,1,9.89-6.37c5.59-.38,7.53,1.21,12.87,5.07a5,5,0,0,0,.05,3,6.91,6.91,0,0,0,7,4.86c4.34,0,8.89-2.74,9.08-2.85.34-.21.89-.62.78-1s-.85-.43-1.25-.43c-2.65,0-4.18-1.65-5.83-3.32a23.68,23.68,0,0,0-1.77-1.7,5.28,5.28,0,0,0-3.47-1.23,6.8,6.8,0,0,0-2.83.63h0a3.45,3.45,0,0,0-.74.51c-5.78-4.14-9.17-5.07-13.82-4.55-7.7.86-10.41,6.32-10.6,6.66a14,14,0,0,0-1.33,11.46,16.55,16.55,0,0,0,2.64,4.5c-1,2.39-.74,6.39-.39,9.46-2.31-5.84-9.35-13.8-13.91-17.26-1.45-1.47-3.23-4.15-2.41-7.15a4.91,4.91,0,0,1,.8-1.47s.11-.15.21-.14.11,0,.25.17a2.85,2.85,0,0,0,2.08,1.45l.44,0a2.35,2.35,0,0,0,1.35-.42l0,0a2.25,2.25,0,0,0,.88-1.68,2.35,2.35,0,0,0-.89-2s-.09-.07-.13-.09c-2.29-1.46-4.5.2-5.41,1.34a5.65,5.65,0,0,0-1.13,2.15v0a7.68,7.68,0,0,0,1.29,6.19,20.7,20.7,0,0,0-19.81-1.82l-.18.07s-9.41,3.72-13.86,12.23c-3.47,1-13.42,4.55-22.14,16.38a46.38,46.38,0,0,0-7.07,15.85,32.93,32.93,0,0,0,1.4,19.48,29.51,29.51,0,0,0,4.91,8.9c4,4.89,8.53,7.95,14.59,8.28.08,0,.4,0,.89,0a25.71,25.71,0,0,0,9.47-1.83c4.59-2,10.18-6.48,12.79-17.11a.06.06,0,0,0,0,0c.34-1.69.6-3,.81-4.59a73.12,73.12,0,0,0,7.08,4.68c2.14,1.41,10.36,5.7,15.1,9.83.07.06.14.21.22.25v12.09a.88.88,0,0,0,.89.87h6.55c1.65,2.69,1.83,8.39-.65,13.79a40,40,0,0,0-7.41.47h0c-.33.06-2,.18-2.45-.25a1,1,0,0,1-.28-1.06c0-.27,1.25-2.32,5.85-1.56.42.07,1,0,1.15-.36s-.14-.73-.5-1.22a10.74,10.74,0,0,0-4.37-3.3l-.11-.1a7.59,7.59,0,0,0-5.4-2.06,6.73,6.73,0,0,0-4.49,1.33,9.84,9.84,0,0,0-3.58,7.29,17.51,17.51,0,0,0,3.72,12.25c2.58,3.06,6.71,4.9,11.79,5.41a43.3,43.3,0,0,1-3.47,6.2,79.26,79.26,0,0,1-17-4.71,3.17,3.17,0,0,0,.08-.39c1.11-5.94-.09-11.2-3.09-15.07-5.21-6.74-15.78-7.66-16.17-7.7h-.11a18.16,18.16,0,0,1,2.56-5.33c1.92-2.69,6.11-5.79,12.67-7.21a4.84,4.84,0,0,0,4.59,2.92,8.13,8.13,0,0,0,3.1-.66,13.89,13.89,0,0,1,5.57-1.42,5.61,5.61,0,0,1,2,.35c.35.07,1,.07,1.18-.22s-.07-.81-.26-1.11c-1.56-2.57-5.26-3.5-7.54-4,6.12-2.88,4.39-7.83,4.37-7.89-.1-.34-.4-.8-.77-.83s-.47.36-.64.68c-1.18,2.23-3.12,3.1-8.19,4.31a5,5,0,0,0-4,6.18,21.1,21.1,0,0,0-13,8.25,17.87,17.87,0,0,0-2.77,5.9,32,32,0,0,0-11.73,1.46c-2.78.88-7.45,2.88-10,5.89.55-1.06,1.81-4.78,1.89-5.07,1.41-5.38,2.1-9.06-.56-12.94-2-2.9-5.77-5-7.94-6.81-2.54-2.12-4.24-3.68-4.84-5.68a.28.28,0,0,1,.23-.4,4,4,0,0,0,2.35-.78,2.28,2.28,0,0,0,.82-1.62v0a2.23,2.23,0,0,0-.79-1.73,2.51,2.51,0,0,0-2.11-.53.42.42,0,0,0-.16,0c-2.64.87-2.43,3.59-2,5a6.12,6.12,0,0,0,.18.63c.78,2.39,3.27,4.24,5.62,6.33a64,64,0,0,1,5.5,5.11c-3.43-2.35-9.38-3.22-12.3-.82l-.08.06c-.13.11-2.36,1.88-1.35,5.66,0,0,0,0,0,0a5.09,5.09,0,0,0-1.7,2.22c-.62,2,0,5.4,1.58,8.22a13,13,0,0,0,4.16,4.26,17.54,17.54,0,0,1,3.55,3c.4.47.69.91,1.08.91h.12c.46-.11.43-.73.34-1.19a45.55,45.55,0,0,1-.65-9.35c.25-2.57-.49-5.42-1.82-6.86-1.12-1.21-2.42-2.33-4.17-2l-.41.13c-.65-2.43.27-3.66.55-3.92,3.25-3.48,11.2-.3,12.49,2.38a3.82,3.82,0,0,0,.21.36c1.57,3.17,1.65,6.91.44,11.08a38.8,38.8,0,0,1-2.74,6.53h0c-.05.08-1.75,3.7-1.84,4-10.07,24,10.69,35.12,10.88,35.23a33.76,33.76,0,0,0,13,4l0,1.77c.1,2,0,4.78-1.78,6.49a3.91,3.91,0,0,1-1.59.79s-.18,0-.25,0-.1-.05-.07-.29a2.71,2.71,0,0,0-.59-2.43,1.48,1.48,0,0,0-.3-.31,2.23,2.23,0,0,0-1.3-.56h0a2.32,2.32,0,0,0-1.79.68,2.35,2.35,0,0,0-.66,2.06.8.8,0,0,1,0,.15c.73,2.57,3.51,2.76,5,2.5a5.85,5.85,0,0,0,2.29-.88l0,0c1.67-1.24,2.09-3.22,2.41-5.17a8.6,8.6,0,0,0,.11-1.38c1.63,4.87,3.6,7.08,7.65,8.65a6.35,6.35,0,0,0,.13.92,3.29,3.29,0,0,0,2.86,2.2,11.89,11.89,0,0,0-2.06,1.25c-1.07,1.16-.8,2.69.27,3.92a6.27,6.27,0,0,0,1.13,1,4.41,4.41,0,0,0,3.21.94,3,3,0,0,0,2-1.29,5.18,5.18,0,0,0,.53-3.91,11,11,0,0,0,1,2,3.86,3.86,0,0,0,.89.87,2.4,2.4,0,0,0,2,.58,4.31,4.31,0,0,0,2.7-1.94c1.44-2,1.43-4.12-.37-5.09a4.88,4.88,0,0,0-2.76-.28,4.69,4.69,0,0,0,2.55-1.41c1.17-1.64.65-3.48-1.4-4.92a4.38,4.38,0,0,0-3.2-.94,2.49,2.49,0,0,0-1.82,1.1,4.48,4.48,0,0,0-.54,2.79A7.41,7.41,0,0,0,161,369.5a2.71,2.71,0,0,0-2.3-.58,4.39,4.39,0,0,0-2.7,1.94,8,8,0,0,0-.57,1.27,5.1,5.1,0,0,0-.11.58c-3.78-2.37-5.72-4.62-6.27-10.51,5.41-.18,12.13-.57,22.26-7.43a32.76,32.76,0,0,0,4.2-3.13,17.69,17.69,0,0,1,5.67-.06,13.24,13.24,0,0,1,6.52,2.89,5.07,5.07,0,0,0-.89,3.24c.23,2.84,3,4.71,3.07,4.79a13.89,13.89,0,0,1,5.09,6.38c.12.36.39,1,.78,1h.16c.33,0,.69-.6.84-.89,1.41-2.71.14-7.45-.54-9.18,1.22,1.53,4.19,2,5.41,1.89h0a7.75,7.75,0,0,0,4.85-2.14c.26-.28.63-.81.46-1.16s-.83-.44-1.22-.42c-2.78.13-4.69-1.53-8.43-5a6.07,6.07,0,0,0-7.94-.53l-.06.06a17.24,17.24,0,0,0-6.46-2.67,16.81,16.81,0,0,0-5.49.11l.43-.43a60.71,60.71,0,0,0,8.61-10.11c1.18.21,2.38.4,3.61.58a165.21,165.21,0,0,0,21.94,1.5h.32c-1.66,4.5-3.15,8.68-3.3,11.51v.33a4.3,4.3,0,0,0,.14,1c.68,2.53,5,2.21,6.32,1.79.46,1.12,1.61,4.08,6.29,3.11a5.35,5.35,0,0,0,2.27,2c1.44.59,4.49,1.45,7-.84.56,1.08,3.83,3.61,7.93.89a3.2,3.2,0,0,0,1.09,1,99.24,99.24,0,0,0,2.63,11.8c.89,3.42-.41,4.18-4.32,6.13-3.7,1.85-4.5,2.51-4.64,3.6a1.57,1.57,0,0,0,.74,1.37c1.19,1,4.64.85,4.84.82,7.52-.36,9.27-2.15,9.45-2.36h0c1.72-1.18.5-4.56.39-4.88,0,0,0,0,0,0a6.82,6.82,0,0,1-.56-4.07c.23-1.72.79-4.5.93-5.93a12.52,12.52,0,0,0,3.77,6.41,10.93,10.93,0,0,0,6.86,2.24,17.77,17.77,0,0,0,4-.44c8.55-1.94,11.6-7.6,11.86-8.11,2.66-4.62,3.22-10,3.42-12.65a9,9,0,0,0,2.75,2.66l0,0a8.49,8.49,0,0,0,3.64,1,4.2,4.2,0,0,0,2.16-.54c1.4-.82,2.25-2.44,2.3-4.87a5.2,5.2,0,0,0-.9-3.27,3,3,0,0,0-2.08-1.1h-.05a2.93,2.93,0,0,0-2.06.74,2.19,2.19,0,0,0-.62,1.78.08.08,0,0,1,0,0,2.24,2.24,0,0,0,1,1.53,2.85,2.85,0,0,0,2.45.48c.13,0,.35,0,.36.33v.12a3.33,3.33,0,0,1-1.29,2.72c-1.24.73-3.35,0-4-.43-4.88-3-3.82-6.76-3.14-8.25a9.94,9.94,0,0,1,6.38-5.09h.21c9.55.12,15.21-4.33,17.63-11.72a30.92,30.92,0,0,0,1-11.72,48.3,48.3,0,0,0-3.72-14,3.74,3.74,0,0,1-.12-.5c0-.09-1.54-6.68,3.23-9.75a.3.3,0,0,1,.5.17,3,3,0,0,0,1.4,1.86,2.52,2.52,0,0,0,1,.22,2.26,2.26,0,0,0,.85-.16h0a2.29,2.29,0,0,0,1.29-1.43A2.49,2.49,0,0,0,309.3,295Zm-32.78,32.24c1.35-2,1.86-5.12,2.29-5,.49-.09,1,3.42,2.33,5.07A5.58,5.58,0,0,1,276.52,327.23Zm8.17-15a41.58,41.58,0,0,1-.81,5.56c-.64,3.35-1.05,7.28.45,10.9-2-1.06-4.42-5.56-5-9.62-.07-.47-.1-.85-.45-.89-.19,0-.38.4-.49.88,0,.06-1.88,7.35-5.47,9.61a19.81,19.81,0,0,0,1.75-9.81c-.37-3.91-.17-9.37,2.15-12a5,5,0,0,1,4-1.94C282.82,305.1,285,307.55,284.69,312.28Zm14.25-33c1.11-.19,1.82.5,2.12,2.05a3.12,3.12,0,0,1-.24,2.21,1.82,1.82,0,0,1-1.13.62c-.77.14-2.21-.26-2.09-.85a3.48,3.48,0,0,0-.05-.91,3.4,3.4,0,0,0-.64-1.42C296.46,280.31,298,279.47,298.94,279.3Zm-2.19,6.51c.73.33.93,1.43,1.08,2.2a1.35,1.35,0,0,1-.18,1.1,2.9,2.9,0,0,1-1.89.93c-1.6.28-2.58-.11-2.72-1.21-.25-1.92-.07-2.52.79-2.49a5.14,5.14,0,0,0,1,0,3.53,3.53,0,0,0,1.23-.47A.8.8,0,0,1,296.75,285.81Zm-1-1.75a2,2,0,0,1-1.34.84,2.27,2.27,0,0,1-.52,0,2.11,2.11,0,0,1-1.93-1.68,2.32,2.32,0,0,1,.32-1.67,2.07,2.07,0,0,1,1.34-.84,2.08,2.08,0,0,1,2.45,1.81A2,2,0,0,1,295.78,284.06Zm-4.69-7.31a2.9,2.9,0,0,1,1.89-.93c1.6-.28,2.51.13,2.72,1.21s0,2.74-.7,2.83c-.09,0-.25-.05-.53-.07h0a3.69,3.69,0,0,0-.88,0,3.74,3.74,0,0,0-.88.27.75.75,0,0,1-.57-.1c-.73-.32-1.07-1.39-1.22-2.16A1.35,1.35,0,0,1,291.09,276.75Zm.11,4.65a3.44,3.44,0,0,0-.29,1.77c.07.8.87,1.57.73,2a3.23,3.23,0,0,1-2.09.73c-1.12.12-1.84-.61-2.14-2.17a3,3,0,0,1,.21-2.06,1.68,1.68,0,0,1,1-.78C289.39,280.65,291.37,280.75,291.2,281.4Zm-6.42-22.94a1.72,1.72,0,0,1,.38-.58,2.19,2.19,0,0,1,2.07-.51,5.07,5.07,0,0,1,2.93,1.61c.69.76,1.29,1.48,1.87,2.18a15.22,15.22,0,0,0,6.46,4.57,11.54,11.54,0,0,1-8.67.27c-2.28-.87-3.85-3-4.94-6a4.19,4.19,0,0,1-.17-.53C284.76,259.05,284.76,258.71,284.78,258.46Zm-59.35-49.59a3.12,3.12,0,0,1,2.07-.6,5.73,5.73,0,0,1,2.74,1.12c.55.46,1.58,1.21,2.22,1.75a10.92,10.92,0,0,0,5.73,2.93,12.62,12.62,0,0,1-7.51,2.07,6.72,6.72,0,0,1-6.05-4.51C224.6,211.55,224.07,209.72,225.43,208.87ZM168.54,290.5a15.07,15.07,0,0,0,8-4.22c0,.17-.07.33-.08.51,0,1.77-2.18,4.34-4.34,5.18-.38.14-1,.44-1,.83s.8.53,1.2.57a14.57,14.57,0,0,1,6,2.71h0a16.63,16.63,0,0,0-6.84,1.28,6.43,6.43,0,0,1-2.34.5,3.66,3.66,0,0,1-3.88-2.8v0C165.3,294.9,164.34,291.45,168.54,290.5Zm-55.3,13.83a2.92,2.92,0,0,1,3.31,1c.89,1.17,1.39,3.93,1.32,6a37.65,37.65,0,0,0,.84,7.67,34.76,34.76,0,0,0-3-2.53h0a10.35,10.35,0,0,1-3.51-4.09c-1.29-2.32-1.68-4.93-1.06-6.31A3,3,0,0,1,113.24,304.33Zm48.34,77.85a1.83,1.83,0,0,1-1.17.62,2.94,2.94,0,0,1-2-.68c-1.32-.92-1.71-1.89-1-2.75,1.23-1.51,1.8-1.68,2.47-1.17a4.78,4.78,0,0,0,.68.67,3.5,3.5,0,0,0,1.2.54.77.77,0,0,1,.55.48A2.76,2.76,0,0,1,161.58,382.18Zm7-5.44c.92.65.91,1.63,0,2.93a2.88,2.88,0,0,1-1.66,1.29,2.16,2.16,0,0,1-1.37-.28c-.64-.45-1.28-1.63-.76-2a3.65,3.65,0,0,0,.63-.67,3.42,3.42,0,0,0,.59-1.44C166.22,375.81,167.84,376.2,168.61,376.74Zm-4.54-6.64a1.42,1.42,0,0,1,.93-.64,2.91,2.91,0,0,1,2,.68c1.32.92,1.66,1.85,1,2.75s-1.8,1.67-2.36,1.24c-.07-.06-.2-.13-.42-.31h0a3.6,3.6,0,0,0-.65-.58,3.12,3.12,0,0,0-.81-.42.84.84,0,0,1-.33-.47A2.6,2.6,0,0,1,164.07,370.1Zm-.5,4a2.23,2.23,0,0,1,.4.35,2.11,2.11,0,0,1-2.83,3.08,2.25,2.25,0,0,1-.39-.36,2.1,2.1,0,0,1,2.82-3.07Zm-6.44-2.59a2.84,2.84,0,0,1,1.65-1.29,1.61,1.61,0,0,1,1.27.19c.71.48,1.91,2,1.31,2.31a3.3,3.3,0,0,0-1.44,1c-.63.9-.55,2.07-1.1,2.18a2.36,2.36,0,0,1-1.76-.61C156.18,374.62,156.2,372.84,157.13,371.54ZM189.83,354l0,0a4.55,4.55,0,0,1,3.19-1.15A5.4,5.4,0,0,1,196,354.4c2.69,2.48,5.13,4.26,8.67,4.91a12.24,12.24,0,0,1-3.15,1,7.6,7.6,0,0,1-5.07-1.45c-.35-.27-.94-.65-1.34-.47s0,.74.1,1.33c0,0,1.43,4.27.78,7.49a12.67,12.67,0,0,0-5-6.25s-2.09-1.45-2.24-3.39A4.08,4.08,0,0,1,189.83,354ZM149,310.92l.32,0c.09,0,9.74,1,14.47,7.12,2.68,3.46,3.52,8,2.52,13.39a43.4,43.4,0,0,1-10.14-6.3c-.06-.05-5.81-4.49-7-9.72A12.57,12.57,0,0,1,149,310.92Zm25.9,38.69a45.66,45.66,0,0,1-11.26,7.13s-15.06,7-29.26-.68c-.05,0-19.65-8.23-11.27-32.23,0,0,0-.07,0-.11a19.29,19.29,0,0,1,4.88-7.31c4.43-3.89,12.06-6.32,19.87-5.59a14.51,14.51,0,0,0,0,4.56A18.45,18.45,0,0,0,155,326.47a45.34,45.34,0,0,0,10.75,6.87,11,11,0,0,1-5,6.25c-2.57,1.32-5.8,1.23-9.6-.28l.32-.15a8.24,8.24,0,0,0,3.79-5.29c.09-.31.22-.7.36-1.1a17.14,17.14,0,0,0,1-4.14c0-.28,0-.7-.23-.87a1.13,1.13,0,0,0-.92,0,36.74,36.74,0,0,1-5.61,1.15c-2.24.21-3.73.82-4.71,2.09-.72-2.24-2.24-3.24-5.07-3.66a35.54,35.54,0,0,1-5.5-1.49,1.11,1.11,0,0,0-.91,0,.78.78,0,0,0-.28.78c.24,1.16.41,2.41.7,3.62a10,10,0,0,1,.31,1.64c.24,3.25,1.47,4.21,3.16,5.32a6.21,6.21,0,0,0-5,4.39,43.7,43.7,0,0,1-2.09,5.35c-.13.25-.22.42-.09.66s.33.23.61.27a7.06,7.06,0,0,0,.93.05,21,21,0,0,0,2.45-.13c.92-.08,1.73-.1,2.15-.12,2.68-.13,4.7-.93,6-2.38.1-.12.2-.23.28-.34.52,2.59,1.82,4.14,4.91,4.67a38,38,0,0,1,5.4,1.49l.39.15a1,1,0,0,0,.64,0c.24-.15.23-.58.25-.86a15,15,0,0,0-.52-3.73c-.13-.58-.26-1.13-.31-1.54a16.16,16.16,0,0,0-1.5-4.39,11.81,11.81,0,0,0,10.07.41,12.65,12.65,0,0,0,6-6.84c1.35.57,1.89.81,3.35,1.32a94.36,94.36,0,0,0,13,3.4A55.34,55.34,0,0,1,174.92,349.61Zm-34.6-11.31a3.62,3.62,0,0,0,.94,2.48,3.74,3.74,0,0,0,1.36,1,5.4,5.4,0,0,1-1.44,2.43,6.52,6.52,0,0,1-4.67,2.06c-.5,0-1.11.11-1.75.2s-2,.25-2.65.29a32.4,32.4,0,0,0,1.84-4.54C134.74,339.4,136.67,338.48,140.32,338.3Zm-1.87-2.38a5.07,5.07,0,0,1-2.56-4.08,26.58,26.58,0,0,0-1.24-4.86,19.56,19.56,0,0,0,5.41,1.94c2.82.43,3.79,1.41,4,5.23a2.46,2.46,0,0,1,0,.47,4,4,0,0,0-3.57,2.26l-.11,0A8.19,8.19,0,0,1,138.45,335.92Zm3.59,3.7a2.27,2.27,0,0,1-.63-1.67,2.41,2.41,0,0,1,2.43-2.28h.09a2.43,2.43,0,0,1,1.65.74,2.33,2.33,0,0,1,.62,1.68,2.4,2.4,0,0,1-2.52,2.27A2.31,2.31,0,0,1,142,339.62Zm3.43-4.8a.76.76,0,0,1,0-.15c0-.18,0-.33.06-.54.55-2.5,1.58-3.41,4.3-3.66a15.35,15.35,0,0,0,5.69-1.71c-.49,1.13-1.1,2.74-1.36,3.49-.14.42-.43,1.17-.61,1.59-.86,2-1.64,3.42-2.95,4.12a3,3,0,0,1-2.78.05,3.59,3.59,0,0,0-1-2.28A5.19,5.19,0,0,0,145.47,334.82ZM144.28,342a3.47,3.47,0,0,0,3.39-2.47,6.76,6.76,0,0,1,2.1.93c1.16.72,1.75,2.65,2,4.87.07.49.2,1.07.34,1.69s.84,2.17.93,2.83a19.47,19.47,0,0,0-5.08-1.89C145.24,347.45,143.88,345.7,144.28,342Zm120.1-38.76c-3.51,5.64-4.28,10.69-2.67,17.33A57.46,57.46,0,0,0,251.21,309a.25.25,0,0,0,0-.07l-.12-4.52v-.06c5.61-.13,10.47-.88,15.36-4C265.91,301.1,264.93,302.3,264.38,303.2Zm12.41-19a5.3,5.3,0,0,1-.38.75,2.07,2.07,0,0,1-.34.39c-2.51,2.72-4.7,2.64-7.16,2.33a13.13,13.13,0,0,1-7.7-4.22,15.68,15.68,0,0,0,7.44-.94c.85-.33,1.91-.85,2.89-1.17a4.79,4.79,0,0,1,3.47-.15,5,5,0,0,1,1.92,2.11C277,283.42,276.88,283.92,276.79,284.16Zm.81-2.17a5.1,5.1,0,0,0-2-1.95,5.85,5.85,0,0,0-4.64-.15c-1,.34-1.93.69-2.8,1-2.71,1.05-4.67,1.81-7.57,1.25-.35-.07-1-.07-1.17.23s.06.82.27,1.11,3.64,5.45,9,6.14a8.47,8.47,0,0,0,1.23.08,7.48,7.48,0,0,0,5.22-2.07C269.23,298.87,261.52,303,251,303.15a31.21,31.21,0,0,0-.26-7,1.59,1.59,0,0,1,2,.44,2.24,2.24,0,0,0,.93.62.81.81,0,0,0,.45-.13c.35-.22.17-1,0-1.37a7.47,7.47,0,0,1-.38-.88l.47-.53c1.22-1.36,2.57-2.21,2.33-6.56-.22-4.15-2.72-6.71-5-7.17l-.31-2.65c1.68-3.32,3.15-6.86,3.46-9.09,3.05,3.25,8,3.61,8.62,3.63,7.36.32,12.3-1.13,16.13-4.7a10.81,10.81,0,0,0,2.24-2.69A78.46,78.46,0,0,1,277.6,282Zm-59.14,17.6c-2-1.32-1.5-2.27-1.37-2.52.45-.61,1.39,0,1.4,0l0,0a45.55,45.55,0,0,1,4,2.56.83.83,0,0,0,.23.15c3.78,1.89,12.73,2.75,17.29,2.75,2,0,3.28-.08,3.45-.08a.59.59,0,0,0,.57-.7,20.13,20.13,0,0,1-.27-5,5,5,0,0,0,.67,0,2.22,2.22,0,0,0,1.42-.73.76.76,0,0,1,1.26,0,.29.29,0,0,0,.1.09,3,3,0,0,0,2,.61c.18,1.93.55,5.48,0,7.16l0,.13a3.32,3.32,0,0,1-3.34,2.51c-.06,0-3.6.58-15-1.29-3-.49-5.44-1.12-7.84-1.75-1.12-.28-2.28-.58-3.47-.86-3-.7-4.22-1.46-5.14-2.35h2.82c.19.14.52.23.73.37s1.16.48,1.4.13S218.82,299.83,218.46,299.59Zm24.42-23c-.16-.36-.58-.27-1.17,0a11.67,11.67,0,0,1-6.46,1.07,2,2,0,0,1-1.83-1.39,3.14,3.14,0,0,1-.08-.36.66.66,0,0,1,.12-.32,1.23,1.23,0,0,1,.15-.16.43.43,0,0,0,0-.52l0-.05c-.17-.22-.63-.27-.89-.32h0a.45.45,0,0,1-.39-.51s0-.25.39-.31a2.16,2.16,0,0,1,.84,0,1.56,1.56,0,0,0,.52,0,.84.84,0,0,0,.52-.26.39.39,0,0,0-.08-.52.77.77,0,0,0-.51-.09.9.9,0,0,1-.3,0l-.49-.13a5.64,5.64,0,0,1-.79-.24.41.41,0,0,1-.26-.52l0-.07c.07-.17.2-.13.3-.12l.15.05a.29.29,0,0,0,.38-.15.41.41,0,0,0,0-.21,1.06,1.06,0,0,0-.38-.52,3,3,0,0,0-.88-.39l-.09,0a3.81,3.81,0,0,1-1-.39.72.72,0,0,1-.12-.93,15.26,15.26,0,0,0,1.37-1.83l0-.05a3.46,3.46,0,0,0,.1-2.79,4.94,4.94,0,0,1-.14-.5,15.1,15.1,0,0,1,.78-3.38c.91.62,3.95,3.07,6.72,4.11a10.11,10.11,0,0,0,4.85,6.55c-.11,1.07-.87,3.07,2,6.92h0a19.9,19.9,0,0,0,1.27,3.5h-.34a5.19,5.19,0,0,0-3.22,1c-1.43,1.08-2,1.9-2.77,4.21a1.06,1.06,0,0,1-.63.52,17.82,17.82,0,0,1-2.14.12c-1.17,0-.9-.41-.93-.41a14.72,14.72,0,0,1,2.27-3.56c1.11-1.56.81-4,1.73-5.55a.6.6,0,0,1,.25-.27,3.22,3.22,0,0,0,1.05-.91A.35.35,0,0,0,242.88,276.58Zm8.05,5c2.41.28,3.74,2.88,3.92,6.39.18,3.27-.59,4.6-1.58,5.73-.08-.58-.2-2.2-.27-3.08-.37-4.2-1.29-6.65-3.07-8.21l-.56-.48Zm-2.11-.57a.42.42,0,0,0-.15,0,12,12,0,0,1-.45-2.24h0l1.6-.28.52,2.12Zm1.06-3.21-1.81.23c-3.56-3.15-2.66-6.38-2.6-6.58a.92.92,0,0,0,.06-.6.81.81,0,0,0-.43-.48,7.08,7.08,0,0,1-3.55-5.1c.13.11,1.44.07,1.44-.32s-.7-.45-1.23-.62c-5.34-1.74-7.07-4.86-7.72-5.32-.21-.39-.22-.6.63-1.53,1.8-2,5.29-2.07,8.11-1.84h.07c.66.06,9.66.42,10,10A27.52,27.52,0,0,1,249.88,277.8Zm-9.66,11.26s.46-.09.35.59a9.49,9.49,0,0,0-.12,2.06v0a11,11,0,0,1-1.33,3.83c-.19.36-.28,1,.07,1.25s1-.06,1.29-.38c.8-.94,1.33-.77,1.57-.66a.53.53,0,0,1,.29.25,39.1,39.1,0,0,0,.22,5.07c-1.26,0-3.74.08-6.83-.08a.57.57,0,0,0,0-.13c0-5.47.07-8.58,1-11.28a.64.64,0,0,1,.78-.47Zm4.35,19.19a10.28,10.28,0,0,0,1.12,0,5.7,5.7,0,0,0,3.93-1.66l-.15,2.46a24.26,24.26,0,0,1-6.94.64,31.14,31.14,0,0,1-6.61-.76l0-1.59A79,79,0,0,0,244.57,308.25Zm5-13.25c-.15.07-.57.54-1.26-.16a2.17,2.17,0,0,0-3.25-.15,3,3,0,0,0-.4.3.56.56,0,0,1-.32.16,1.56,1.56,0,0,1-1-.55l-.13-.1c-.31-.2-.5-.42-1.29,0-.1,0-.51-.06-.4-.55a6.8,6.8,0,0,0,.36-1.9c0-.32-.22-6.19,2.54-8.06,2-1.37,2.94-1,4.07-.58l.25.12.14.12c1.42,1.24,2.2,3.45,2.52,7.15.15,1.67.91,3.61.34,3.86C250.81,294.6,250.33,294.41,249.55,295Zm-14.42-72.28c-2.76,4-2,9.91-1.31,11.42a6.48,6.48,0,0,0-.89,1,6.69,6.69,0,0,0-1.05,3.41s0,.06,0,.09c0,2.64,1.34,4,3.18,5.39,2.54,1.91,4.53,3.78,4.55,3.8a1,1,0,0,0,.63.32h0c.49,0,.56-.2.56-.68a.58.58,0,0,0,0-.19,23,23,0,0,1,0-6.44c.46-3-.23-4.81-1-5.76a5,5,0,0,0-2-1.42,5.84,5.84,0,0,0-1.61-.21,2.74,2.74,0,0,0-.5,0c-.66-1.43-1.07-9.07,1.87-12.41a4.15,4.15,0,0,1,.44-.33,23.72,23.72,0,0,1,14.2-3.85,32.47,32.47,0,0,1,19.08,8.26,41.14,41.14,0,0,1,5.75,6.64c-2,1.49-5.2.88-5.2.88a12.36,12.36,0,0,0-10.74-6.2,13.61,13.61,0,0,0-3.28.38,9.3,9.3,0,0,0-7,6.11,12,12,0,0,0-.64,4.36,11,11,0,0,0-1.33,11.11,13.93,13.93,0,0,0,3.84,4.49,10.62,10.62,0,0,0,6.3,2,15.33,15.33,0,0,0,5.16-.8l0,0,.2-.1c5.9-.08,8.78-2.53,10.17-4.59a10.28,10.28,0,0,0,1.68-4.75c.5-6.45-2-9.25-3.31-10.32a11.58,11.58,0,0,0,4.8-1.4c2.09,3,3.53,8.34,3.64,9a74.08,74.08,0,0,1,1.35,15.87,13.3,13.3,0,0,1-4.66,9.11c-3.61,3.11-9.48,4.68-15.4,4.3l-.26,0a11.4,11.4,0,0,1-7.46-3.45,15.32,15.32,0,0,0,0-2.19c-.52-6.43-4.1-8.65-6.6-10a12.85,12.85,0,0,0-5.38-1.57c-3.62-.27-7,.38-9,2.39a8.58,8.58,0,0,0-2.46,4.09,2,2,0,0,0-.07.33,7.52,7.52,0,0,0-.6,3.28c0,.08.12.72.14.8a5.22,5.22,0,0,1,.16.9,1.32,1.32,0,0,1-.1,1.11c0,.05-.44.67-.47.7-.52.69-1.1,1.23-1.27,1.52-.47.83-.21,1.63,1.07,2.2h0a4.88,4.88,0,0,1,.62.22c.44.18,0,1.05,0,1.32-.11.45,0,.71.48,1.18a3.79,3.79,0,0,0-.12.7,1,1,0,0,0,.34.81,1.59,1.59,0,0,1,.57,1.11s.15,3.16,4.69,2.57a13,13,0,0,0,1.32-.2.31.31,0,0,1,.37.19c.43.95,1.15,2.92.34,4.24-2.12,3.44-4.8,7.26-4.9,17.53v0c-1.78-.13-4.26-.36-6.1-.67a1.29,1.29,0,0,0,1.48-1.08V275.57a.87.87,0,0,0-.89-.87H217.23a118.74,118.74,0,0,1,1.5-18.62c1.49-9.46,3.82-20.44,12.59-29.85A32.35,32.35,0,0,1,235.13,222.72Zm4.71,24a24,24,0,0,0-3.92-3.32,6.13,6.13,0,0,1-2.38-5.18,5.69,5.69,0,0,1,.55-2.35,2.08,2.08,0,0,1,2.58-1.19l.14.06a5.21,5.21,0,0,1,2.85,6.16A17.47,17.47,0,0,0,239.84,246.76Zm20.93-7.12c2.35-1.82,6.87-1.45,7-1.46a21.12,21.12,0,0,1,1.06,4.66C265.6,243.84,261.8,241.83,260.77,239.64Zm8.07,3.8a11.74,11.74,0,0,1-.43,3.76.08.08,0,0,1,0,.05s-4.13,1.77-7.55.43a9.38,9.38,0,0,1-4.58-3.28v0a.83.83,0,0,0,.09-.16,19.76,19.76,0,0,1,3.76-4.17,4.68,4.68,0,0,0,2.9,4A6.52,6.52,0,0,0,268.84,243.44Zm-10-4.5a10.25,10.25,0,0,0-2.82,4.67,10.18,10.18,0,0,1,1.74-8.23,9.29,9.29,0,0,1,6.07-3.15,10.07,10.07,0,0,1,3.68,5.27C264.82,236.12,260.78,237.05,258.79,238.94Zm5.36-8c-3.49-.06-6.28,1-8,3.38-2,2.84-1.7,7-1.21,9.08-2.87-1.91-3.22-5.94-3.27-6.2-.18-1.88,0-6.8,6.71-8.52h0a12.13,12.13,0,0,1,2.83-.32c2.51,0,6.59.27,9.31,4.14A14.09,14.09,0,0,0,264.15,230.91Zm-9,13.19h0c0,.09.11.25.14.35a7.87,7.87,0,0,0,3,3.68c3.21,2.28,7.48,1.42,9.67.24-4.19,7.25-12.35,4.2-14,3a10.07,10.07,0,0,1-3.61-3.75,10.51,10.51,0,0,1-.06-9.33A9.3,9.3,0,0,0,255.18,244.1Zm15.58-2.27a11.53,11.53,0,0,0-5.61-9.65c6.45,0,9.85,6.21,9.23,12.43v0a7.66,7.66,0,0,1-1.31,3.77,11,11,0,0,1-7.06,4.21C269.78,250,270.9,246.76,270.76,241.83Zm-67.64-16.57c1.13-2,3.27-4.55,6.4-4.6a8.34,8.34,0,0,1,6.56,2.74,9.33,9.33,0,0,1,1.73,6.88c-2.68.36-4.85.25-9.15-1l-.11,0c-.05,0-4-1.42-5.53-3.77Zm-.76,1.71c2.47,2.4,8.24,5.4,15.27,4.81a11.29,11.29,0,0,1-.39,1.72s0,0,0,.05a11.32,11.32,0,0,1-4.11,5.61c-.15.11-.19.11-.28.09a.26.26,0,0,1-.1-.11,2.6,2.6,0,0,0-1.79-1.91,2.31,2.31,0,0,0-1.83.14l0,0a2.28,2.28,0,0,0-1.11,1.55s-.7,3.11,2.9,3.11a4.32,4.32,0,0,0,2.93-1.23,2.28,2.28,0,0,0,.39-.36,20.49,20.49,0,0,0,3.91-6.34,13,13,0,0,0,.59-2.4,20.94,20.94,0,0,0,4.65-1.26,25.27,25.27,0,0,0,4.61-2.3c-2.66,2.74-5,7.21-6.57,11.16a76.84,76.84,0,0,0-4.53,16.6,144.6,144.6,0,0,0-1.94,18.78h-5.32c-.12-3.94,0-15-3.66-26.84-.89-2.9-2.27-6.05-3.55-9.22C202.09,237.22,200.8,231.35,202.36,227Zm-47.22-4.27a24.66,24.66,0,0,1,9.88-7.06,18.78,18.78,0,0,1,17.26,1.06c10.28,5.82,15.65,15.86,18.24,22.24-.13-.64,2.33,6.19,3.29,9.42,3.62,12.25,3.19,22.36,3.3,26.34H201.2a116.53,116.53,0,0,0-2.6-15.6s-6.09-28.61-30.18-32.72a38.56,38.56,0,0,0-15.93.32A19.07,19.07,0,0,1,155.14,222.7Zm7.92,53.92c-2,7.93-5.9,14.14-12,16.84a18.14,18.14,0,0,1-8.95,1.42h0c-5.57-.3-9.16-3.3-12.7-7.78a27.5,27.5,0,0,1-4.07-8.12c-4.47-12.36-2-26.12,4.47-35,0,0,7.83-11.64,20-15.5-1.09,1.67-2.45,6.72-2.62,7.63a24.21,24.21,0,0,0,.28,11.23,21.53,21.53,0,0,0-2.05.83,14.07,14.07,0,0,0-8.27,11.5l-.08,0a7.22,7.22,0,0,0-4.34,3.9c-2.17,5.06,1.79,10.32,2.58,12.15a19.65,19.65,0,0,1,1.06,9.77c0,.37.07.73.43.84a.84.84,0,0,0,.88-.34,19.22,19.22,0,0,0,2.49-3.41c.06,0,.12,0,.18,0a3.65,3.65,0,0,0,4.44-1.34,16.76,16.76,0,0,0,5,1.63c.4,0,1,0,1.2-.3s-.38-.74-.68-1c-3.65-2.9-4-6.92-4.52-11a31.52,31.52,0,0,0-.58-4.81c-1.19-4.57-4.05-6.16-6-6.23.19-5,2.23-7.83,6.42-10.23a15.26,15.26,0,0,1,2-.89,45.51,45.51,0,0,0,9.14,15.83A53.89,53.89,0,0,0,164,271.1C163.76,273,163.46,274.57,163.06,276.62Zm-22.41-2.71c-.19-.42-.39-.83-.82-.68-.24.09-.16.53-.19,1,0,.05.86,6.89-1.85,9.46-.14-2.08-.2-6.26-1.53-9-2-4-3.15-8.3-1.82-11.31a4.69,4.69,0,0,1,3.37-2.62c1.58-.32,4.34.22,5.55,5.4a50,50,0,0,1,.89,5.27,23.41,23.41,0,0,0,3.64,9.63C144.32,280.44,142.4,277.72,140.65,273.91Zm3.25,6.78a5.47,5.47,0,0,1-3.51,1c.56-2.24.17-4.31.58-4.34C141.39,277.13,142.3,279.36,143.9,280.69Zm20.27-11.51a46.48,46.48,0,0,1-5.67-6.12,47.67,47.67,0,0,1-8.41-15.2,15.27,15.27,0,0,1,2.2-.21h0a9.84,9.84,0,0,1,8.32,3.8C163.17,255.06,164.49,262.05,164.17,269.18Zm24.31,6.39v9.1a69.1,69.1,0,0,0-8.17-5.16c-2.59-1.3-5.8-3.12-6-3.23a59.56,59.56,0,0,1-8-5.25,48.65,48.65,0,0,0-.17-6.65,1.93,1.93,0,0,0,0-.48c-.16-2.3-.54-5-.54-5a14.71,14.71,0,0,0-1.76-6.06c-2-4.3-2.34-8.53-.35-11.62a8.53,8.53,0,0,1,1.31-1.58c.14-.11.19-.23.34-.24s.23.12.27.19a2.86,2.86,0,0,0,2,1.52,2,2,0,0,0,.47,0,2.22,2.22,0,0,0,1.24-.37s0,0,0,0a2.16,2.16,0,0,0,.88-1.57,2.19,2.19,0,0,0-.79-1.88l-.12-.1a4.15,4.15,0,0,0-5,.44,9.8,9.8,0,0,0-2.28,2.52l0,0c-2,3.31-.89,7.64-.14,10.1-1.91-2.53-5.72-3.73-8.89-3.79a18.39,18.39,0,0,0-2.87.28,29.06,29.06,0,0,1-.63-10.27,35.24,35.24,0,0,1,2.49-8.43,37.32,37.32,0,0,1,20.77.42s19.38,5.31,24.32,32a119.25,119.25,0,0,1,1.88,14.15h-9.35A.88.88,0,0,0,188.48,275.57Zm2.18,22.94a.39.39,0,0,1-.4-.41V276.37s0-.4.41-.4H227a.39.39,0,0,1,.41.4V298.1a.4.4,0,0,1-.41.41h-4a3.05,3.05,0,0,1-1.22-.45c-1.4-.83-1.26-1-2.56-1.64-.73-.43-2.33-1.36-3.27-.14a1.9,1.9,0,0,0-.31,1.45c.06.34.12.72-.32.78Zm8.19,8.19c.25-2.36.35-4.92-.39-6.45h14.25l.13.14a10.14,10.14,0,0,0,6,3.05c.55.1,1.38.28,2.81.65,2.44.62,5.81,1.54,9,2.29,1.17.28,2.41.56,3.44.7l.1,1.51a51.32,51.32,0,0,0-7,7.08,16.46,16.46,0,0,0-3.07-4.28,10.12,10.12,0,0,0-7.18-3.15l-.3,0c-1.63,0-4.4.37-4.75,3.07a.81.81,0,0,0,0,.16,2.09,2.09,0,0,0,1,1.91,2.29,2.29,0,0,0,1.42.47l.47,0h0a2.31,2.31,0,0,0,1.48-1.1,4.58,4.58,0,0,0,.13-2.85c0-.09-.09-.37.24-.4,2.77-.2,4.28,1,6.22,2.8a12.11,12.11,0,0,1,2.86,4.7c0,.09.07.28.14.34a105.35,105.35,0,0,0-7.8,10.64l-7.82-7.26a26,26,0,0,0-7.8-5,14.42,14.42,0,0,0-5.5-1.41A24.39,24.39,0,0,0,198.85,306.7Zm-20.19,17.7c-3.9-4.61-3-10.94-3-11s0-.06,0-.09A9.24,9.24,0,0,1,178.1,307a5.33,5.33,0,0,1,3.7-1.07h.07a6.91,6.91,0,0,1,4.07,2l.12.1c.51.42,3.21.92,3,1.95-.16.36-2.48.27-3.51.93a3.4,3.4,0,0,0-1.6,2v0a2.9,2.9,0,0,0,.85,2.56c1.18,1.05,3.92.5,4.24.44,6.22-1,9.6-.07,12.56,1a26.55,26.55,0,0,1,7.22,4.67l19.35,17a8.85,8.85,0,0,1-2.75.28L216,330.86c-.34-.34-.67-.48-.91-.23s0,.75.29,1.09L222,338a7.57,7.57,0,0,1-2.57.16l-9-8.2c-.56-.4-.89-.61-1.25-.28s-.09.7.24,1.05l5.83,5.53a6.1,6.1,0,0,1-2.61-.17l-11.18-8.71c-.64-.58-1.18-.78-1.75-.22-3.49,3.45-8.84,2.77-8.88,2.77h-.09A15.91,15.91,0,0,1,178.66,324.4ZM193,338.27c-.84-.11-1.67-.26-2.54-.39s-1.89-.29-2.86-.45a45.63,45.63,0,0,0,3.43-6.31h0a13.2,13.2,0,0,0,2.73-.05Zm1.75.19.56-7.62a11.66,11.66,0,0,0,5.14-2.53l11,9.11a1,1,0,0,0,.18.13c.11.07.46.62,2,.46-.2.5-.36.7-.57,1.25A149.22,149.22,0,0,1,194.71,338.46Zm20.12,16.43a4.15,4.15,0,0,1-3.65-.61v0c.17-3.53,2.71-11.87,4.58-16.4.2,0,.64,0,.85-.08l1.5,1.42a1,1,0,0,0,.31.21l0,.05A123.63,123.63,0,0,0,214.83,354.89Zm27,8.13a7.49,7.49,0,0,0,1.64.18,6.24,6.24,0,0,0,4.23-1.25c.12,0,.3.38.36.54a83.74,83.74,0,0,1-.81,13.09.66.66,0,0,0,0,.14,5.26,5.26,0,0,0,.53,2.93c-.49.4-1.32.75-1.71,1.05a2.94,2.94,0,0,0-2.34-1.93,6.43,6.43,0,0,0,.24-3.73c0-.05,0-.1,0-.15S242.75,369,241.79,363Zm1.33,15.71a2.42,2.42,0,0,1,1.54,1.92,5.48,5.48,0,0,1-4,.84,2.2,2.2,0,0,1-1.31-.55C240.73,380.22,242.46,379.49,243.12,378.73Zm4.37,4.17c-.07,0-2.07,1.45-8.31,1.79h-.08c-1.14.12-3-.09-3.65-.64a.57.57,0,0,1-.22-.6c.11-.35.91-1,3.29-2.16.08.14,0,.55.29.77a3.48,3.48,0,0,0,2.2.83h.44c2.43,0,4.12-.74,6.69-2.8C248.29,380.93,248.38,382.3,247.49,382.9Zm.45-22.3a.85.85,0,0,0-.76,0c-4.54,2.52-7.45-.19-7.57-.3a.82.82,0,0,0-1-.16c-3.63,2-6,.22-6.6-.4a37,37,0,0,1-.46-5.18c0-.45.06-.81-.37-.93-.28-.09-.5.21-.57.64a41.4,41.4,0,0,0-.43,5.3c-4.14,1.62-6.27,0-7.09-.72a64.85,64.85,0,0,1,.77-11.42c.08-.44.21-.87-.21-1s-.71.15-.81.58a67.18,67.18,0,0,0-1.6,11.12c-3.88-.26-4.25-1.77-4.44-2.26.11-1,1.22-10.88,2.65-16.15l0-.11.72.08a13.84,13.84,0,0,0,2.57-.13c.19,0,.33-.17.34-.46l.94.91a1.67,1.67,0,0,0,.53.34,3.46,3.46,0,0,0,1.58.35,5.54,5.54,0,0,0,3.3-.89.85.85,0,0,0,.13-1.33l-10.07-9.34a77.4,77.4,0,0,1,15.37-19.58,13.09,13.09,0,0,0,1.62.52,4.26,4.26,0,0,0-.75,1.36c-.22.76-.1.8.07.9l.08,0c.31.07.62-.28.76-.53a6.46,6.46,0,0,1,1.17-1.46,25.68,25.68,0,0,0,5.42.46,6,6,0,0,1,.94,2.1c.06.29.07.75.5.76h.08c.29-.08.35-.08.33-.85a15.77,15.77,0,0,0-.25-2.07c.66,0,.83-.07,1.53-.14a10.37,10.37,0,0,1,3.94,2.81c.43.5.84.48.89.45.33-.17.23-.43,0-.79a14.51,14.51,0,0,0-2.62-2.78,19.69,19.69,0,0,0,2.06-.56c3.33,2.91,11.11,11.28,17.5,25,.19.36.26.64.35.76a85.86,85.86,0,0,1,6.08,19.13,3.84,3.84,0,0,1-3.41.65c-2.76-19-14.44-36.14-14.54-36.29-.23-.37-.55-.74-.94-.5s-.11.68.12,1.06c.1.15,11.22,17.81,13.67,36.54,0,0,0,0,0,0-.1.56-.45,2.36-4.26,2.57-.76-12.6-6.51-28.49-6.68-28.84s-.44-.73-.85-.54-.26.5-.12,1c0,.09,5.26,16.54,5.91,29.16a8.11,8.11,0,0,1-6.88.74,108.3,108.3,0,0,0-1-12.65c-.06-.43-.25-.77-.69-.72s-.46.43-.42.86a102.35,102.35,0,0,1,.29,12.3,1.77,1.77,0,0,0-.24.23C251.45,363.08,247.94,360.6,247.94,360.6Zm30.5-11.9a7.07,7.07,0,0,0-.73,4.62.55.55,0,0,0,0,.18c0,.06,1.28,6.08-3.28,14l0,.05A17,17,0,0,1,263.83,375h0c-.05,0-5.72,1.41-9.84-1.21-2.19-1.41-3.61-4-4.14-7.17a1.24,1.24,0,0,1,0-.35c.07-1.47.09-2.61.1-3.35a5.1,5.1,0,0,0,5.79-1.82c3.32,2.62,7.65.89,9.15-1.11,2.57.52,4.43-.34,5.19-1.45a10.46,10.46,0,0,0,.8-2,4.8,4.8,0,0,0,5.55-1.44.85.85,0,0,0,.2-.65l0-.37a0,0,0,0,1,0,0,88.94,88.94,0,0,0-5.39-17c2.65,3.46,8.58,6,13,6.85C282.15,344.67,279.53,346.35,278.44,348.7Zm23-15.64c-.31.93-.66,1.08-1.25,1.1a5.24,5.24,0,0,1-3.68-2.24v0c-1.63-2.13-1.64-3.37-2.15-5.93-.28-1.37-1-4.45-1.12-5.42,4,2.93,6.39,6.18,7.19,8.45a27,27,0,0,1,1.09,3.53A2.85,2.85,0,0,1,301.43,333.06Z" transform="translate(-109.07 -203.31)"/><path class="cls-1" d="M184.09,381.69a4.21,4.21,0,0,0,2.53-3.93,3.72,3.72,0,0,0-2.63-3.88,8.19,8.19,0,0,0-3.15-.56h-.51a5.94,5.94,0,0,0-3.3,1.14,6.6,6.6,0,0,0-2.59,3.91,1.85,1.85,0,0,0,.2,1.29.87.87,0,0,0,.75.42.9.9,0,0,0,.67-.28,2.09,2.09,0,0,0,.22-1.61,4.32,4.32,0,0,1,1-2.61,3.82,3.82,0,0,1,2.73-1.52,4.71,4.71,0,0,1,.55,0c1.09,0,3.64.37,3.64,3.86a3.82,3.82,0,0,1-2.63,3.93.5.5,0,0,1-.18,0h-.1v-.16c0-.52-.07-.93-.07-1.48v-.76c0-1.73,0-2.44.41-3.16l.17-.29c.2-.31.24-.52.11-.63a1,1,0,0,0-.22-.16l-.12,0c-.19,0-.35.2-.55.47l0,0a1.41,1.41,0,0,0-.14.18,11.88,11.88,0,0,0-1.88,6.05c0,.77,0,1.55,0,2.31s0,1.5,0,2.28c0,3.76-.69,4.53-1.74,4.53-.89,0-1.36-.41-1.38-1.23a.9.9,0,0,1,.53-.88.78.78,0,0,0,.48-.7c0-.69-.88-1.07-1.34-1.07a1.65,1.65,0,0,0-1.45,1.79,2.83,2.83,0,0,0,3,3,4.14,4.14,0,0,0,3-1.25,3.66,3.66,0,0,0,2.37,1.28h.36a5,5,0,0,0,3-1.09,6,6,0,0,0,1.85-4.85A4.11,4.11,0,0,0,184.09,381.69Zm-2.74.88a1.56,1.56,0,0,1,.39,0c1.45.15,3.16.69,3.44,3.53.11,1.08-.14,3.12-1.27,4.06a2.82,2.82,0,0,1-1.69.67h-.09a2.1,2.1,0,0,1-1.64-.77l.06-.12a11.81,11.81,0,0,0,.86-5.07C181.41,384.31,181.38,383.22,181.35,382.57Z" transform="translate(-109.07 -203.31)"/><path class="cls-1" d="M195.86,373.33l-.51,0a4.46,4.46,0,0,0-3.75,2.19,17.18,17.18,0,0,0-2.16,8.5c0,3.94,1.62,7.94,4.73,7.94,2,0,3.54-1.36,4.58-3.92a19.63,19.63,0,0,0,1.22-7,12.79,12.79,0,0,0-.88-4.77C198.36,374.49,197.24,373.48,195.86,373.33Zm-1.11,1.21h.35c1.12.07,1.9,1.59,2.36,2.85a15.26,15.26,0,0,1,.95,5.29,17.65,17.65,0,0,1-.73,5.27c-.58,1.62-1.43,2.44-2.53,2.44-1.39,0-2.2-1.65-2.7-2.89a17.71,17.71,0,0,1-1-5.87,14.51,14.51,0,0,1,1-5.65A2.43,2.43,0,0,1,194.75,374.54Z" transform="translate(-109.07 -203.31)"/><path class="cls-1" d="M214.63,386.84a1.41,1.41,0,0,0-.16.26v0c0,.07-.06.16-.1.27a16.68,16.68,0,0,1-1,2.32,2.08,2.08,0,0,1-1.68,1.21c-.82,0-1.17-1.51-1.42-2.62l-.07-.28a19.89,19.89,0,0,1-.42-4.92,24.49,24.49,0,0,1,.8-5.18c.44-1.6.93-3.11,1.54-3.37a.56.56,0,0,1,.66.09,2.15,2.15,0,0,1,.29,1.5,3.13,3.13,0,0,1-.09.55l0,.14a.66.66,0,0,0,0,.6.64.64,0,0,0,.52.25h0c.49,0,1-.41,1.07-1.58a2.37,2.37,0,0,0-.65-1.77,2.08,2.08,0,0,0-1.6-.62c-1.32.07-2.37,1.42-3.21,4.13a9,9,0,0,0-.53-2.31,3.47,3.47,0,0,0-3-2.2h-.24c-1.84,0-3.17,1.23-3.72,3.47a1.3,1.3,0,0,0,.16,1,.81.81,0,0,0,.64.28h.08c.46,0,.77-.29.9-1.56.17-1.7.89-2.46,1.52-2.46h0a1.4,1.4,0,0,1,1,.44c.95,1,1.37,3.42,1.25,7.32a23.4,23.4,0,0,1-.89,6c-.67,2.05-1.5,3.08-2.45,3.08h-.13a.76.76,0,0,1-.5-.28,1.12,1.12,0,0,1-.14-.91,2.52,2.52,0,0,1,.94-1.6c.17-.12.32-.23.33-.46a.59.59,0,0,0-.19-.44,1.52,1.52,0,0,0-1.07-.37c-.63,0-1.29.61-1.33,2a3.3,3.3,0,0,0,.73,2.48,1.73,1.73,0,0,0,1.26.52,3.49,3.49,0,0,0,2.94-2.06,8.72,8.72,0,0,0,1-2.83c.63,3.07,2,4.89,3.63,4.89,1.25,0,2.22-.42,3.19-2.47a10.39,10.39,0,0,0,.77-2.25.31.31,0,0,0-.08-.25C215.09,386.74,214.75,386.68,214.63,386.84Z" transform="translate(-109.07 -203.31)"/><path class="cls-1" d="M235,386.8H235c-.17,0-.26.19-.32.31s0,.08-.08.26a8.92,8.92,0,0,1-.8,2.14c-.56.94-1.08,1.42-1.53,1.42a.74.74,0,0,1-.25-.05c-.45-.19-.66-1.35-.85-2.48l-.11-.59c-.29-1.7-.72-4.21-2.18-5a4.56,4.56,0,0,0,1.61-.8,5.17,5.17,0,0,0,1.89-4.08,3.78,3.78,0,0,0-2.41-3.95,8,8,0,0,0-3.29-.69l-.49,0a6.41,6.41,0,0,0-3.79,1.41,7.06,7.06,0,0,0-2.18,3.25l0,.11a2.24,2.24,0,0,0,.07,1.52.88.88,0,0,0,.8.47,1.06,1.06,0,0,0,.71-.25c.29-.31.27-.77.25-1.46,0-.11,0-.23,0-.36a4.59,4.59,0,0,1,.95-2.43,4.07,4.07,0,0,1,3.18-1.56h0a3.61,3.61,0,0,1,2.69,1,4.08,4.08,0,0,1,1,3.07c-.08,2.63-1,4-2.9,4.42v-.19c0-.48,0-.89-.07-1.32,0-.24,0-.49,0-.76-.1-1.85-.13-3,.36-3.87.05-.1.12-.2.17-.29l.11-.15c.12-.16.21-.29.16-.39s-.18-.21-.34-.3a.31.31,0,0,0-.13,0c-.19,0-.32.17-.48.39l-.1.13-.14.18a12,12,0,0,0-1.88,6.05c0,.77,0,1.55,0,2.31v.35c0,.64,0,1.29,0,1.93,0,4-.85,4.53-1.74,4.53a1.44,1.44,0,0,1-1-.36,1.31,1.31,0,0,1-.33-1c0-.3.22-.52.54-.75a.88.88,0,0,0,.46-.69c0-.69-.89-1.07-1.34-1.07a1.65,1.65,0,0,0-1.46,1.79,2.84,2.84,0,0,0,3,3,3.62,3.62,0,0,0,3.48-2.11,11.18,11.18,0,0,0,.83-4.95c0-.42,0-1.15,0-1.6.71.16,1.22,1.52,1.53,4a12.66,12.66,0,0,0,.72,3,2.3,2.3,0,0,0,2.08,1.6l.29,0a3.43,3.43,0,0,0,2.83-2,9.59,9.59,0,0,0,1-2.74C235.52,386.9,235.15,386.83,235,386.8Z" transform="translate(-109.07 -203.31)"/></svg>
